:FULLY-SPECIFIED
:DEGREES
474
root -0.138076 15.7653 -2.49439 1236.57 -84.0327 -1230.86
lowerback 3.66956 3.48031 -2.00794
upperback -2.57732 4.54571 0.436594
thorax -4.91403 2.32664 1.20848
lowerneck -18.4282 -1.25218 0.961775
upperneck 24.3596 -2.07016 -0.911553
head 10.8926 -1.06453 -0.813092
rclavicle 3.10104e-014 5.56597e-015
rhumerus -18.2386 3.97178 -91.1842
rradius 38.2338
rwrist -6.57886
rhand -32.5044 -16.851
rfingers 7.12502
rthumb -5.73574 -46.7534
lclavicle 3.10104e-014 5.56597e-015
lhumerus -38.9256 6.87053 87.2133
lradius 16.1203
lwrist -4.74588
lhand -29.57 15.6522
lfingers 7.12502
lthumb -2.90215 45.6122
rfemur 11.7392 5.75657 26.9795
rtibia 12.9999
rfoot -8.1352 -6.88436
rtoes -27.117
lfemur -28.5361 -9.38569 -15.5616
ltibia 25.1591
lfoot -9.66889 12.462
ltoes -17.1097
475
root -0.161424 15.7709 -2.46859 1243.14 -84.0976 -1237.4
lowerback 3.51094 3.46862 -2.73147
upperback -2.64462 4.48041 0.207235
thorax -4.93122 2.3146 1.38556
lowerneck -18.3399 -1.24508 0.929778
upperneck 24.4716 -2.08366 -0.81727
head 10.9187 -1.06411 -0.776503
rclavicle -6.44062e-014 -2.06736e-014
rhumerus -18.9458 3.25073 -91.3899
rradius 37.4186
rwrist -6.13484
rhand -32.6541 -17.0567
rfingers 7.12502
rthumb -5.88025 -46.9551
lclavicle -6.44062e-014 -2.06736e-014
lhumerus -38.6898 6.50983 87.2915
lradius 16.1309
lwrist -4.7897
lhand -29.7284 15.4724
lfingers 7.12502
lthumb -3.05515 45.4303
rfemur 10.1914 5.44284 25.9697
rtibia 16.5937
rfoot -8.30358 -6.4304
rtoes -28.0502
lfemur -27.9091 -8.61668 -16.6686
ltibia 25.2171
lfoot -8.73542 11.5562
ltoes -15.7452
476
root -0.186002 15.7715 -2.44037 1247.56 -84.1817 -1241.84
lowerback 3.31895 3.40315 -3.25099
upperback -2.62861 4.36354 0.075021
thorax -4.83037 2.27019 1.55946
lowerneck -18.4154 -1.23572 0.85733
upperneck 24.6321 -2.0696 -0.766327
head 10.9949 -1.05901 -0.746938
rclavicle 1.59028e-014 0
rhumerus -19.5886 2.69781 -91.5244
rradius 36.5885
rwrist -6.06956
rhand -32.8965 -17.1809
rfingers 7.12502
rthumb -6.11434 -47.0727
lclavicle 1.59028e-014 0
lhumerus -38.3081 6.08324 87.5179
lradius 16.1905
lwrist -4.5546
lhand -29.9234 15.5445
lfingers 7.12502
lthumb -3.24344 45.4996
rfemur 8.61494 4.82166 25.1215
rtibia 20.3002
rfoot -8.23709 -5.88837
rtoes -29.0931
lfemur -27.3877 -7.96837 -17.6209
ltibia 25.4686
lfoot -8.16219 10.5315
ltoes -14.3478
477
root -0.207182 15.7721 -2.40963 1250.53 -84.186 -1244.8
lowerback 3.1605 3.34644 -3.54279
upperback -2.63497 4.27187 -0.0370786
thorax -4.75595 2.23108 1.62268
lowerneck -18.4226 -1.22159 0.853791
upperneck 24.7299 -2.054 -0.765837
head 11.033 -1.05333 -0.745405
rclavicle 1.51076e-014 -1.55052e-014
rhumerus -20.279 1.78092 -91.5778
rradius 35.5354
rwrist -5.06151
rhand -32.8619 -17.1505
rfingers 7.12502
rthumb -6.08088 -47.0432
lclavicle 1.51076e-014 -1.55052e-014
lhumerus -37.8634 5.79611 87.6077
lradius 16.1367
lwrist -4.60957
lhand -30.065 15.4343
lfingers 7.12502
lthumb -3.38023 45.3873
rfemur 6.92102 4.05437 24.3715
rtibia 23.9418
rfoot -7.58879 -5.25862
rtoes -29.6617
lfemur -26.9715 -7.60483 -18.3156
ltibia 25.8337
lfoot -7.82984 10.0473
ltoes -12.7076
478
root -0.225983 15.7586 -2.37416 1252.61 -84.207 -1246.95
lowerback 3.11485 3.26014 -3.66446
upperback -2.66704 4.1455 -0.143629
thorax -4.75724 2.17024 1.59214
lowerneck -18.3365 -1.20398 0.815468
upperneck 24.7874 -2.02615 -0.751423
head 11.0387 -1.04444 -0.72975
rclavicle -9.06458e-014 1.11319e-014
rhumerus -21.1053 1.0761 -91.6641
rradius 34.6048
rwrist -4.7896
rhand -33.3028 -17.1469
rfingers 7.12502
rthumb -6.50654 -47.0269
lclavicle -9.06458e-014 1.11319e-014
lhumerus -37.4586 5.68302 87.5604
lradius 16.0739
lwrist -4.88943
lhand -29.9725 15.4755
lfingers 7.12502
lthumb -3.29088 45.4299
rfemur 5.23663 3.22112 23.6538
rtibia 27.5138
rfoot -6.42122 -4.72722
rtoes -29.945
lfemur -26.4694 -7.50306 -18.9192
ltibia 26.2569
lfoot -7.75084 9.6711
ltoes -11.4373
479
root -0.245041 15.764 -2.33452 1254.31 -84.2334 -1248.76
lowerback 3.12335 3.17869 -3.69991
upperback -2.66535 4.03027 -0.225584
thorax -4.74999 2.11224 1.53625
lowerneck -18.2791 -1.17826 0.804866
upperneck 24.8772 -1.96879 -0.835481
head 11.0607 -1.03196 -0.750867
rclavicle -7.07673e-014 1.39149e-014
rhumerus -21.8336 0.172345 -91.6228
rradius 33.4484
rwrist -4.00898
rhand -33.3486 -17.3084
rfingers 7.12502
rthumb -6.55072 -47.1871
lclavicle -7.07673e-014 1.39149e-014
lhumerus -36.9891 5.44314 87.6502
lradius 16.071
lwrist -4.70534
lhand -30.0641 15.3985
lfingers 7.12502
lthumb -3.37937 45.3514
rfemur 3.5432 2.25165 22.8953
rtibia 30.9921
rfoot -4.6909 -4.2184
rtoes -29.6498
lfemur -25.898 -7.38959 -19.5207
ltibia 26.6217
lfoot -7.64929 9.16764
ltoes -9.99572
480
root -0.261323 15.7634 -2.29528 1255.23 -84.1864 -1249.85
lowerback 3.22048 3.10592 -3.65449
upperback -2.66927 3.92905 -0.270457
thorax -4.79678 2.06008 1.46731
lowerneck -18.2855 -1.12238 0.819249
upperneck 25.0232 -1.86507 -0.965495
head 11.1159 -1.00193 -0.787541
rclavicle -2.54444e-014 -2.78299e-015
rhumerus -22.4692 -0.867875 -91.5182
rradius 31.9699
rwrist -2.92092
rhand -33.3837 -17.1709
rfingers 7.12502
rthumb -6.58465 -47.0485
lclavicle -2.54444e-014 -2.78299e-015
lhumerus -36.5231 5.30649 87.6733
lradius 16.0625
lwrist -4.86895
lhand -30.0821 15.3875
lfingers 7.12502
lthumb -3.39677 45.3402
rfemur 1.80003 1.48298 22.2743
rtibia 34.4199
rfoot -2.32217 -4.03683
rtoes -28.6131
lfemur -25.1744 -7.04707 -20.0834
ltibia 26.8399
lfoot -7.5333 8.71056
ltoes -8.64141
481
root -0.277795 15.7653 -2.25712 1257.86 -84.0892 -1252.68
lowerback 3.32877 3.04076 -3.81687
upperback -2.65245 3.82466 -0.350906
thorax -4.84072 2.01206 1.47741
lowerneck -18.2171 -1.05161 0.894982
upperneck 25.0498 -1.74425 -1.13272
head 11.1112 -0.962699 -0.843227
rclavicle 3.1408e-014 -8.34896e-015
rhumerus -23.2528 -1.48532 -91.4695
rradius 30.8126
rwrist -2.24448
rhand -33.5807 -17.4272
rfingers 7.12502
rthumb -6.77481 -47.2988
lclavicle 3.1408e-014 -8.34896e-015
lhumerus -36.0598 5.06235 87.7433
lradius 16.1833
lwrist -4.75781
lhand -30.0146 15.4245
lfingers 7.12502
lthumb -3.33157 45.3782
rfemur 0.0826027 1.02739 21.5026
rtibia 37.7594
rfoot 0.432083 -4.03083
rtoes -26.6786
lfemur -24.2831 -6.76453 -20.8006
ltibia 26.8222
lfoot -7.35316 8.30008
ltoes -6.91715
482
root -0.292844 15.7701 -2.22209 1261.35 -83.9161 -1256.43
lowerback 3.44526 2.94529 -4.1759
upperback -2.64891 3.66876 -0.3952
thorax -4.916 1.94627 1.63763
lowerneck -17.9496 -0.907311 0.912011
upperneck 25.0301 -1.50679 -1.28537
head 11.0528 -0.875955 -0.8644
rclavicle -3.77691e-014 1.59028e-014
rhumerus -23.9453 -2.05453 -91.3895
rradius 29.4115
rwrist -1.84512
rhand -33.6594 -17.0469
rfingers 7.12502
rthumb -6.8508 -46.9161
lclavicle -3.77691e-014 1.59028e-014
lhumerus -35.7064 4.83345 87.8731
lradius 16.4165
lwrist -4.24805
lhand -29.905 15.4971
lfingers 7.12502
lthumb -3.22569 45.4524
rfemur -1.60366 0.834074 20.6762
rtibia 41.1255
rfoot 3.50055 -4.00755
rtoes -24.6271
lfemur -23.1857 -6.58406 -21.6163
ltibia 26.5693
lfoot -7.08738 8.15482
ltoes -5.37934
483
root -0.305971 15.7756 -2.18828 1265.11 -83.5952 -1260.45
lowerback 3.60281 2.92464 -4.58642
upperback -2.59341 3.60649 -0.475111
thorax -4.96637 1.92698 1.78158
lowerneck -17.939 -0.810196 1.0121
upperneck 25.0631 -1.33403 -1.5294
head 11.0625 -0.820051 -0.945299
rclavicle 1.82882e-014 -4.77083e-015
rhumerus -24.5159 -2.64862 -91.1815
rradius 28.1209
rwrist -0.879197
rhand -33.3498 -17.5748
rfingers 7.12502
rthumb -6.5519 -47.4534
lclavicle 1.82882e-014 -4.77083e-015
lhumerus -35.259 4.44646 88.0493
lradius 16.7784
lwrist -3.80297
lhand -29.8877 15.4872
lfingers 7.12502
lthumb -3.20903 45.4428
rfemur -3.34064 0.667669 19.7797
rtibia 44.511
rfoot 6.32183 -4.06354
rtoes -23.4664
lfemur -21.977 -6.55382 -22.4313
ltibia 26.1542
lfoot -7.1472 8.46995
ltoes -4.52066
484
root -0.317228 15.7766 -2.15818 1269.69 -83.2699 -1265.39
lowerback 3.84303 2.90886 -5.1448
upperback -2.52343 3.53273 -0.603387
thorax -5.05416 1.90596 1.95485
lowerneck -17.969 -0.708446 1.06811
upperneck 25.1487 -1.16127 -1.70631
head 11.1014 -0.760277 -0.995601
rclavicle -4.53229e-014 1.43125e-014
rhumerus -25.0551 -3.44358 -90.8912
rradius 26.7465
rwrist 0.488927
rhand -32.7334 -17.5837
rfingers 7.12502
rthumb -5.95681 -47.48
lclavicle -4.53229e-014 1.43125e-014
lhumerus -34.7811 4.04412 88.1951
lradius 17.173
lwrist -3.34153
lhand -29.8093 15.6406
lfingers 7.12502
lthumb -3.13333 45.5974
rfemur -5.06219 0.56312 18.8236
rtibia 47.9201
rfoot 8.98003 -4.57528
rtoes -20.3782
lfemur -20.6003 -6.62709 -23.3852
ltibia 25.5844
lfoot -7.39306 8.75048
ltoes -4.51202
485
root -0.325025 15.7737 -2.12828 1275.01 -83.0354 -1271.18
lowerback 4.23986 2.81119 -5.84926
upperback -2.41928 3.32762 -0.72095
thorax -5.19368 1.82534 2.22659
lowerneck -17.9385 -0.57973 1.03237
upperneck 25.1894 -0.939058 -1.82092
head 11.1141 -0.679203 -0.999405
rclavicle -3.45885e-014 -7.15625e-015
rhumerus -25.6087 -3.66423 -90.7081
rradius 25.5293
rwrist 1.08917
rhand -32.3181 -17.7742
rfingers 7.12502
rthumb -5.55586 -47.6813
lclavicle -3.45885e-014 -7.15625e-015
lhumerus -34.353 3.56166 88.4255
lradius 17.6566
lwrist -2.70598
lhand -29.8577 15.6208
lfingers 7.12502
lthumb -3.18 45.5768
rfemur -6.6567 0.228829 17.7528
rtibia 51.2993
rfoot 11.2932 -5.62788
rtoes -16.9593
lfemur -19.123 -6.7407 -24.4801
ltibia 24.9533
lfoot -7.66324 8.88808
ltoes -4.41993
486
root -0.333591 15.7662 -2.10218 1279.66 -82.8782 -1276.33
lowerback 4.66307 2.70829 -6.48843
upperback -2.33216 3.11048 -0.83801
thorax -5.35742 1.73771 2.46418
lowerneck -17.9566 -0.493669 1.07795
upperneck 25.3037 -0.80067 -1.94787
head 11.1622 -0.630647 -1.03524
rclavicle -8.68689e-014 2.70347e-014
rhumerus -26.1235 -4.67079 -90.2888
rradius 24.1382
rwrist 2.57501
rhand -31.7114 -17.573
rfingers 7.12502
rthumb -4.97006 -47.4947
lclavicle -8.68689e-014 2.70347e-014
lhumerus -33.9807 2.8734 88.7081
lradius 18.2649
lwrist -1.72941
lhand -29.8214 15.7288
lfingers 7.12502
lthumb -3.14499 45.6853
rfemur -8.16174 -0.261207 16.809
rtibia 54.5614
rfoot 12.0299 -7.05988
rtoes -15.2965
lfemur -17.6108 -6.52388 -25.5309
ltibia 24.3213
lfoot -7.92507 8.6842
ltoes -4.43814
487
root -0.335004 15.7567 -2.0805 1282.4 -82.4356 -1279.36
lowerback 4.8799 2.69705 -7.04305
upperback -2.28503 3.03273 -0.929396
thorax -5.453 1.7163 2.67655
lowerneck -17.9535 -0.389052 1.06196
upperneck 25.3683 -0.643136 -1.9753
head 11.1889 -0.566089 -1.02058
rclavicle -4.37326e-015 -5.1684e-015
rhumerus -26.634 -5.7766 -89.8231
rradius 22.8889
rwrist 4.13046
rhand -31.018 -17.6293
rfingers 7.12502
rthumb -4.30056 -47.5656
lclavicle -4.37326e-015 -5.1684e-015
lhumerus -33.5853 1.99185 89.005
lradius 18.8768
lwrist -0.894474
lhand -30.0937 15.647
lfingers 7.12502
lthumb -3.40792 45.5995
rfemur -9.93652 -0.459553 16.0981
rtibia 57.6562
rfoot 11.2414 -9.06132
rtoes -18.0197
lfemur -16.3753 -6.02001 -26.3821
ltibia 23.841
lfoot -8.40157 8.57331
ltoes -4.56936
